# xmcd CD database file
#
# Track frame offsets:
#	150
#	9082
#	21405
#	38572
#	46802
#	57085
#	66475
#	86567
#	98260
#	108420
#	124805
#
# Disc length: 1762 seconds
#
# Revision: 1
# Processed by: cddbd v1.5.2PL0 Copyright (c) Steve Scherf et al.
# Submitted via: CDex 1.51
#
DISCID=7e06e00b
DTITLE=Rita Engebretsen og Helge Borglund - Frem fra Glemselen kapittel 8
DYEAR=1979
DGENRE=Schillingsviser
TTITLE0=Rita Engebretsen og Helge Borglund - ABCD vise
TTITLE1=Rita Engebretsen og Helge Borglund - Tom Dooley
TTITLE2=Rita Engebretsen - Margareth
TTITLE3=Helge Borglund - Stenka Rasin
TTITLE4=Rita Engebretsen - Det vinker til meg i denne kveld
TTITLE5=Helge Borglund - Blant de svarta høga fjellan
TTITLE6=Rita Engebretsen - Han ville ut fra den mørke kroken
TTITLE7=Rita Engebretsen og Helge Borglund - Mor hvor du er kjærlig
TTITLE8=Rita Engebretsen og Helge Borglund - Vesle Per
TTITLE9=Helge Borglund - Jeg har hørt om en stad
TTITLE10=Rita Engebretsen - Ingen er så trygg i fare
EXTD=YEAR: 1979
EXTT0=
EXTT1=
EXTT2=
EXTT3=
EXTT4=
EXTT5=
EXTT6=
EXTT7=
EXTT8=
EXTT9=
EXTT10=
PLAYORDER=
